<svg width="512" height="512" viewBox="0 0 512 512" fill="none" xmlns="http://www.w3.org/2000/svg">
<path d="M0 128C0 57.3076 57.3076 0 128 0H384C454.692 0 512 57.3076 512 128V384C512 454.692 454.692 512 384 512H128C57.3076 512 0 454.692 0 384V128Z" fill="black"/>
<path d="M268.494 97.2299L387.514 246.005C392.189 251.848 392.189 260.152 387.514 265.995L268.494 414.77C262.089 422.777 249.911 422.777 243.506 414.77L124.486 265.995C119.811 260.152 119.811 251.848 124.486 246.005L243.506 97.2299C249.911 89.2234 262.089 89.2234 268.494 97.2299Z" stroke="white" stroke-width="32"/>
</svg>
