<svg width="512" height="512" viewBox="0 0 512 512" fill="none" xmlns="http://www.w3.org/2000/svg">
<path d="M511.92 268.786C511.92 225.744 485.174 188.552 445.474 173.926C447.155 164.829 447.994 155.596 447.98 146.344C447.98 66.526 383.208 1.75403 303.39 1.75403C257.004 1.75403 213.544 23.902 186.38 61.93C173.008 51.482 156.71 46.05 139.576 46.05C97.368 46.05 62.684 80.316 62.684 122.942C62.684 132.136 64.356 141.33 67.28 149.688C27.164 163.478 0 201.924 0 244.548C0 287.592 26.746 325.202 66.862 339.828C65.192 348.604 64.356 357.798 64.356 367.408C64.356 446.808 129.128 511.582 208.528 511.582C255.332 511.582 298.376 489.016 325.538 451.406C338.91 461.852 355.626 467.704 372.76 467.704C414.968 467.704 449.652 433.436 449.652 390.812C449.652 381.618 447.98 372.424 445.056 364.066C484.336 349.858 511.918 311.412 511.918 268.786H511.92Z" fill="white"/>
<path d="M200.17 220.728L314.256 272.966L429.594 171.836C431.275 163.443 432.115 154.904 432.1 146.344C432.1 75.304 374.432 17.634 303.39 17.634C260.764 17.634 221.066 38.528 197.246 73.63L178.022 173.09L200.17 220.73V220.728Z" fill="#F4BD19"/>
<path d="M81.906 341.5C80.236 349.858 79.4 358.634 79.4 367.41C79.4 438.45 137.486 496.538 208.528 496.538C251.572 496.538 291.272 475.226 315.508 440.122L334.314 340.664L308.822 292.188L194.32 239.952L81.906 341.5Z" fill="#3CBEB1"/>
<path d="M81.072 143.836L159.218 162.224L176.768 73.212C165.904 64.854 152.948 60.676 139.158 60.676C105.308 60.676 77.31 88.256 77.31 122.524C77.31 129.628 78.564 137.15 81.07 143.836H81.072Z" fill="#E9478C"/>
<path d="M74.384 162.64C39.282 173.924 15.044 207.774 15.044 244.548C15.044 280.488 37.192 312.666 70.624 325.202L180.53 225.742L160.47 182.702L74.384 162.642V162.64Z" fill="#2C458F"/>
<path d="M335.568 439.704C346.432 448.064 359.388 452.66 372.76 452.66C406.61 452.66 434.608 425.08 434.608 390.812C434.608 383.29 433.354 376.184 430.848 369.498L352.702 351.112L335.568 439.704Z" fill="#95C63D"/>
<path d="M351.448 330.634L437.534 350.694C472.636 338.994 496.874 305.562 496.874 268.786C496.874 232.846 474.726 201.088 441.294 188.134L328.464 286.756L351.448 330.636V330.634Z" fill="#176655"/>
</svg>
