<svg width="512" height="512" viewBox="0 0 512 512" fill="none" xmlns="http://www.w3.org/2000/svg">
<path d="M239.252 0.399982C238.152 0.499973 234.652 0.849938 231.502 1.09991C158.86 7.64927 90.8162 46.8455 47.7204 107.09C23.7227 140.586 8.37423 178.583 2.5748 218.829C0.525 232.877 0.275024 237.027 0.275024 256.075C0.275024 275.123 0.525 279.273 2.5748 293.321C16.4734 389.362 84.8168 470.054 177.508 499.951C194.106 505.301 211.604 508.95 231.502 511.15C239.252 512 272.748 512 280.498 511.15C314.844 507.35 343.941 498.851 372.639 484.203C377.038 481.953 377.888 481.353 377.288 480.853C376.888 480.553 358.14 455.406 335.642 425.009L294.746 369.764L243.501 293.921C215.304 252.225 192.106 218.129 191.906 218.129C191.706 218.079 191.506 251.775 191.406 292.921C191.256 364.964 191.206 367.864 190.306 369.564C189.007 372.014 188.007 373.014 185.907 374.113C184.307 374.913 182.907 375.063 175.358 375.063H166.709L164.409 373.614C162.909 372.664 161.809 371.414 161.059 369.964L160.009 367.714L160.109 267.474L160.259 167.184L161.809 165.234C162.609 164.184 164.309 162.834 165.509 162.184C167.559 161.184 168.359 161.084 177.008 161.084C187.207 161.084 188.907 161.484 191.556 164.384C192.306 165.184 220.054 206.98 253.25 257.325C286.447 307.67 331.843 376.413 354.14 410.16L394.637 471.504L396.686 470.154C414.835 458.355 434.033 441.557 449.231 424.059C481.578 386.912 502.426 341.617 509.425 293.321C511.475 279.273 511.725 275.123 511.725 256.075C511.725 237.027 511.475 232.877 509.425 218.829C495.527 122.788 427.183 42.0959 334.492 12.1988C318.144 6.89935 300.746 3.2497 281.248 1.04992C276.448 0.549968 243.401 2.14279e-05 239.252 0.399982ZM343.941 155.085C346.341 156.285 348.291 158.585 348.991 160.984C349.391 162.284 349.491 190.081 349.391 252.725L349.241 342.617L333.392 318.319L317.494 294.021V228.678C317.494 186.432 317.694 162.684 317.994 161.534C318.794 158.735 320.544 156.535 322.944 155.235C324.993 154.185 325.743 154.085 333.592 154.085C340.992 154.085 342.292 154.185 343.941 155.085Z" fill="black"/>
<path d="M392.137 472.604C390.387 473.704 389.837 474.454 391.387 473.604C392.487 472.954 394.287 471.604 393.987 471.554C393.837 471.554 392.987 472.054 392.137 472.604ZM388.687 474.854C387.787 475.554 387.787 475.604 388.887 475.054C389.487 474.754 389.987 474.404 389.987 474.304C389.987 473.904 389.737 474.004 388.687 474.854ZM386.187 476.353C385.287 477.053 385.287 477.103 386.387 476.553C386.987 476.253 387.487 475.904 387.487 475.804C387.487 475.404 387.237 475.504 386.187 476.353ZM383.688 477.853C382.788 478.553 382.788 478.603 383.888 478.053C384.487 477.753 384.987 477.403 384.987 477.303C384.987 476.903 384.737 477.003 383.688 477.853ZM379.888 479.853C377.988 480.853 378.088 481.253 379.988 480.303C380.838 479.853 381.488 479.403 381.488 479.303C381.488 478.953 381.438 479.003 379.888 479.853Z" fill="black"/>
</svg>
