<svg width="512" height="512" viewBox="0 0 512 512" fill="none" xmlns="http://www.w3.org/2000/svg">
<g clip-path="url(#clip0)">
<path fill-rule="evenodd" clip-rule="evenodd" d="M255.8 0C142.648 0 51 91.648 51 204.8H153.4C153.4 148.275 199.275 102.4 255.8 102.4V0Z" fill="#D6FF00"/>
<path fill-rule="evenodd" clip-rule="evenodd" d="M460.6 204.8C460.6 91.648 368.952 0 255.8 0V102.4C312.325 102.4 358.2 148.275 358.2 204.8H460.6Z" fill="#34E27A"/>
<path fill-rule="evenodd" clip-rule="evenodd" d="M255.8 409.6C368.952 409.6 460.6 317.952 460.6 204.8H358.2C358.2 261.325 312.325 307.2 255.8 307.2V409.6Z" fill="#00B9F1"/>
<path fill-rule="evenodd" clip-rule="evenodd" d="M153.4 409.6V204.8H51V512H255.8V409.6H153.4Z" fill="white"/>
</g>
<defs>
<clipPath id="clip0">
<rect width="409.6" height="512" fill="white" transform="translate(51)"/>
</clipPath>
</defs>
</svg>
