<svg width="512" height="512" viewBox="0 0 512 512" fill="none" xmlns="http://www.w3.org/2000/svg">
<path d="M404.954 165.305C413.288 124.936 415.077 93.973 409.69 71.4897C406.486 58.1179 400.628 47.2093 391.721 39.339C382.318 31.03 370.429 26.9528 357.071 26.9528C335.033 26.9528 311.867 36.9915 287.109 56.0625C277.011 63.8412 266.53 73.2171 255.645 84.1957C254.779 83.0815 253.8 82.0306 252.709 81.0594C221.936 53.6656 196.028 36.6455 173.869 30.0831C160.693 26.1811 148.322 25.8094 137.057 29.5964C125.166 33.5939 115.691 41.8572 109.007 53.4316C97.9745 72.5334 95.0651 97.6333 99.1782 128.625C100.855 141.258 103.721 155.018 107.77 169.928C106.243 170.113 104.711 170.451 103.195 170.953C64.1511 183.878 36.504 197.777 19.7658 213.661C9.80701 223.112 3.3038 233.633 0.952942 245.28C-1.52838 257.573 0.891113 269.903 7.56802 281.469C18.5796 300.543 38.8267 315.587 67.6713 327.502C79.2534 332.287 92.3578 336.62 106.999 340.517C106.331 342.024 105.813 343.624 105.466 345.303C97.1321 385.672 95.3435 416.635 100.731 439.118C103.935 452.49 109.792 463.399 118.699 471.269C128.102 479.578 139.991 483.655 153.35 483.655C175.387 483.655 198.554 473.616 223.312 454.545C233.518 446.684 244.114 437.191 255.123 426.061C256.256 427.831 257.647 429.476 259.291 430.941C290.064 458.334 315.972 475.355 338.131 481.917C351.307 485.819 363.678 486.191 374.943 482.404C386.834 478.406 396.309 470.143 402.993 458.569C414.026 439.467 416.935 414.367 412.822 383.375C411.085 370.286 408.07 355.985 403.786 340.45C405.461 340.281 407.142 339.927 408.805 339.377C447.849 326.452 475.496 312.553 492.234 296.668C502.193 287.218 508.696 276.696 511.047 265.05C513.528 252.757 511.109 240.426 504.432 228.861C493.42 209.786 473.173 194.743 444.329 182.827C432.401 177.9 418.86 173.452 403.688 169.465C404.228 168.143 404.655 166.753 404.954 165.305Z" fill="#002C4B"/>
<path fill-rule="evenodd" clip-rule="evenodd" d="M216.648 172.463H295.365C300.192 172.463 304.649 175.045 307.052 179.231L346.482 247.947C348.865 252.1 348.865 257.205 346.482 261.358L307.052 330.074C304.649 334.26 300.192 336.842 295.365 336.842H216.648C211.822 336.842 207.364 334.26 204.962 330.074L165.532 261.358C163.149 257.205 163.149 252.1 165.532 247.947L204.962 179.231C207.364 175.045 211.822 172.463 216.648 172.463ZM285.609 189.377C290.438 189.377 294.898 191.961 297.299 196.151L326.988 247.953C329.366 252.103 329.366 257.202 326.988 261.352L297.299 313.154C294.898 317.344 290.438 319.928 285.609 319.928H226.404C221.575 319.928 217.116 317.344 214.714 313.154L185.026 261.352C182.648 257.202 182.648 252.103 185.026 247.953L214.714 196.151C217.116 191.961 221.575 189.377 226.404 189.377H285.609ZM275.08 207.876H236.933C232.109 207.876 227.653 210.455 225.25 214.638L206.118 247.941C203.731 252.097 203.731 257.208 206.118 261.364L225.25 294.667C227.653 298.85 232.109 301.429 236.933 301.429H275.08C279.905 301.429 284.361 298.85 286.764 294.667L305.895 261.364C308.283 257.208 308.283 252.097 305.895 247.941L286.764 214.638C284.361 210.455 279.905 207.876 275.08 207.876ZM264.944 225.582C269.765 225.582 274.218 228.158 276.622 232.336L285.598 247.932C287.992 252.093 287.992 257.213 285.598 261.373L276.622 276.97C274.218 281.148 269.765 283.723 264.944 283.723H247.069C242.249 283.723 237.796 281.148 235.391 276.97L226.416 261.373C224.022 257.213 224.022 252.093 226.416 247.932L235.391 232.336C237.796 228.158 242.249 225.582 247.069 225.582H264.944ZM256.01 243.025C251.848 243.025 248.008 245.241 245.93 248.839C243.851 252.436 243.851 256.869 245.93 260.467C248.008 264.065 251.848 266.281 256.003 266.281C260.165 266.281 264.005 264.065 266.084 260.467C268.162 256.869 268.162 252.436 266.084 248.839C264.005 245.241 260.165 243.025 256.01 243.025ZM161.684 254.655H182.616H161.684Z" fill="#FFD94C"/>
<path fill-rule="evenodd" clip-rule="evenodd" d="M147.834 291.996C151.367 289.976 155.853 291.233 157.852 294.802L159.131 297.077C169.381 315.238 180.06 332.477 191.166 348.793C204.282 368.062 219.033 387.568 235.419 407.312C237.991 410.411 237.635 415.02 234.619 417.679L232.971 419.125C178.786 466.468 143.57 475.924 127.321 447.494C111.428 419.686 117.179 369.133 144.576 295.836C145.184 294.21 146.337 292.851 147.834 291.996ZM378.703 347.733C382.615 347.042 386.359 349.621 387.125 353.534L387.538 355.669C400.929 425.756 391.5 460.8 359.251 460.8C327.706 460.8 287.552 430.913 238.788 371.138C237.706 369.812 237.122 368.148 237.137 366.434C237.172 362.39 240.467 359.14 244.496 359.175L247.066 359.194C267.603 359.305 287.567 358.593 306.959 357.056C329.86 355.241 353.775 352.134 378.703 347.733ZM397.228 198.904C398.638 195.106 402.886 193.114 406.783 194.423L408.906 195.141C478.542 218.861 505 244.929 488.282 273.345C471.929 301.141 424.379 321.375 345.631 334.049C343.885 334.331 342.093 334.002 340.568 333.12C336.969 331.04 335.77 326.49 337.89 322.957L339.239 320.702C349.985 302.663 359.697 284.71 368.376 266.844C378.624 245.746 388.241 223.099 397.228 198.904ZM166.369 177.951C168.115 177.669 169.907 177.998 171.432 178.88C175.031 180.96 176.23 185.51 174.11 189.043L172.761 191.298C162.015 209.337 152.303 227.29 143.624 245.156C133.376 266.254 123.759 288.901 114.772 313.096C113.362 316.894 109.114 318.886 105.217 317.577L103.094 316.859C33.4585 293.139 6.99997 267.071 23.7182 238.655C40.071 210.859 87.6211 190.625 166.369 177.951ZM279.029 92.8751C333.214 45.5321 368.43 36.0756 384.679 64.5057C400.572 92.3144 394.821 142.867 367.424 216.164C366.816 217.79 365.663 219.149 364.166 220.004C360.633 222.024 356.147 220.767 354.148 217.198L352.869 214.923C342.619 196.762 331.94 179.523 320.834 163.207C307.718 143.938 292.967 124.432 276.581 104.688C274.009 101.588 274.365 96.9804 277.381 94.3213L279.029 92.8751ZM155.444 48.5052C186.988 48.5052 227.143 78.3925 275.907 138.167C276.988 139.493 277.573 141.157 277.558 142.871C277.522 146.915 274.228 150.165 270.199 150.13L267.629 150.112C247.092 150 227.128 150.712 207.735 152.249C184.835 154.064 160.92 157.172 135.992 161.572C132.079 162.263 128.336 159.684 127.57 155.771L127.157 153.637C113.765 83.5491 123.194 48.5052 155.444 48.5052Z" fill="#FF4154"/>
</svg>
